<svg xmlns="http://www.w3.org/2000/svg" viewBox="0 0 207.302 227.824"><path d="M-16.245 231.5v-236h236v236h-236zm185.995-27.64c21.06.613 33.25-8.282 37.075-27.197 2.258-11.16-3.646-21.564-14.535-25.12-3.94-1.288-8.05-2.154-12.148-2.826-8.42-1.382-15.434-5.264-20.975-11.626-3.6-4.134-6.97-8.505-10.103-13.007-5.035-7.236-11.533-12.428-19.915-15.134-11.815-3.814-23.827-3.917-35.323.514-15.777 6.082-28.904 14.674-28.24 34.717.273 8.272-4.206 14.88-10.595 20.1-5.543 4.53-11.318 8.834-16.46 13.788-9.13 8.796-9.95 17.673-3.29 28.33 10.34 16.554 34.73 25.94 53.03 19.248 11.187-4.092 21.775-9.9 32.444-15.31 11.407-5.782 23.17-9.178 36.088-7.553 4.294.54 8.63.728 12.946 1.078zM116.54 74.846c.323 10.067 2.684 19.768 10.643 27.224 6.67 6.25 15.435 6.063 21.915-.246 13.015-12.672 12.07-41.897-1.734-53.584-6.963-5.896-15.56-5.576-21.92.977-6.814 7.023-8.658 15.862-8.903 25.628zm-6.256 3.617c-.577-14.898-4.324-26.01-14.292-34.193-9.055-7.433-19.683-5.584-25.055 4.05-8.4 15.063-.976 40.643 14.17 48.836 8.336 4.51 17.324 2.007 21.535-6.68 2.123-4.382 2.888-9.42 3.642-12.014zM70.62 107.344C70.7 92.744 63.26 78 53.274 71.576 42.173 64.434 31.24 68.8 28.73 81.73c-2.703 13.918 1.63 26.08 10.907 36.41 5.423 6.04 12.09 10.673 20.72 7.32 8.706-3.384 9.648-11.51 10.264-18.116zm-22.64 44.024c-.082-13.176-9.628-27.514-21.854-32.823-13.283-5.768-24.908 1.82-24.1 16.313.828 14.804 8.257 25.982 21.64 32.406 13.175 6.322 24.403-1.29 24.313-15.896zm151.988-38.636c-.033-10.858-4.004-20.59-10.594-25.965-6.964-5.68-15.462-4.88-21.237 2-10.228 12.185-8.003 36.437 4.263 46.475 7.01 5.736 15.418 5.01 21.186-1.987 4.898-5.94 6.505-12.98 6.382-20.523zM86.643 33.505C82.715 21.79 75.163 11.84 67.055 2.097c-.98 12.846-1.593 25.526 3.494 36.97l16.093-5.562zm-71.38 77.317C9.54 99.882 9.3 87.787 9.397 75.122c-9.56 10.75-12.588 32.683-6.705 43.736 3.986-2.548 7.996-5.11 12.57-8.036zm129.51-69.937c-3.364-14.26-18.193-29.682-29.12-31.39 5.038 10.25 10.392 21.15 15.772 32.097 3.615-.19 8.33-.44 13.35-.707zM28.528 70.812l11.488-7.543-6.293-35.71c-8.366 13.644-10.108 28.087-5.195 43.252zm161.002 10.03c-.704-13.417-13.435-30.714-25.026-34.83l11.86 33.818 13.165 1.013z" fill="none"/><path d="M169.75 203.86c-4.316-.348-8.652-.537-12.944-1.077-12.92-1.625-24.68 1.77-36.088 7.554-10.67 5.41-21.258 11.218-32.445 15.31-18.3 6.692-42.69-2.695-53.03-19.248-6.658-10.66-5.838-19.536 3.29-28.332 5.143-4.954 10.917-9.257 16.46-13.787 6.39-5.22 10.868-11.828 10.595-20.1-.663-20.042 12.464-28.634 28.24-34.716 11.496-4.43 23.51-4.328 35.323-.515 8.383 2.704 14.88 7.897 19.916 15.133 3.133 4.502 6.5 8.873 10.103 13.008 5.54 6.363 12.553 10.245 20.974 11.627 4.096.672 8.21 1.538 12.148 2.825 10.89 3.557 16.793 13.962 14.535 25.12-3.83 18.915-16.02 27.81-37.077 27.2zM116.54 74.845c.245-9.766 2.09-18.606 8.905-25.628 6.36-6.553 14.956-6.873 21.92-.977 13.804 11.687 14.75 40.913 1.734 53.584-6.48 6.31-15.245 6.495-21.916.245-7.96-7.457-10.32-17.158-10.643-27.225zM110.284 78.462c-.754 2.593-1.52 7.632-3.64 12.013-4.212 8.69-13.2 11.19-21.535 6.68C69.96 88.964 62.54 63.384 70.937 48.32c5.37-9.634 16-11.483 25.055-4.05 9.967 8.18 13.714 19.294 14.29 34.192zM70.62 107.344c-.615 6.605-1.557 14.732-10.262 18.115-8.632 3.353-15.298-1.28-20.72-7.32-9.277-10.328-13.61-22.492-10.908-36.41 2.51-12.93 13.443-17.296 24.543-10.154C63.258 78 70.7 92.746 70.62 107.344z"/><path d="M47.98 151.368c.09 14.606-11.138 22.22-24.312 15.896-13.385-6.424-20.813-17.602-21.64-32.406-.81-14.493 10.816-22.082 24.1-16.313 12.224 5.308 21.77 19.647 21.85 32.823zM199.974 112.734c.117 7.54-1.49 14.582-6.388 20.522-5.77 6.996-14.177 7.723-21.186 1.987-12.266-10.038-14.49-34.29-4.263-46.476 5.775-6.88 14.273-7.68 21.237-2 6.59 5.376 10.56 15.107 10.6 25.967zM86.643 33.505l-16.094 5.56c-5.09-11.443-4.476-24.123-3.495-36.97 8.108 9.745 15.66 19.696 19.588 31.41zM15.263 110.822l-12.57 8.036C-3.192 107.805-.162 85.87 9.396 75.122c-.098 12.665.144 24.76 5.866 35.7zM144.774 40.885l-13.35.708c-5.378-10.948-10.733-21.846-15.77-32.096 10.926 1.707 25.755 17.128 29.12 31.388zM28.527 70.812c-4.913-15.166-3.17-29.61 5.195-43.252l6.293 35.71-11.488 7.542zM189.53 80.843l-13.166-1.013-11.86-33.817c11.59 4.114 24.322 21.41 25.025 34.83z"/></svg>