<svg xmlns="http://www.w3.org/2000/svg" viewBox="0 0 42.33 94.566"><path d="M39.174 0c3.598 4.915 4.26 9.924 1.257 14.062-1.084 1.495-3.648 3.253-4.993 2.887-1.728-.47-3.755-2.77-4.16-4.61-1.096-4.964.06-9.504 4.897-12.34h3zM25.444 21.997c5.705.575 10.544.432 12.435 5.324 1.877 4.86.753 9.53-2.975 13.35-2.208 2.262-4.644 4.313-6.745 6.666-5.213 5.84-5.518 12.258-.983 18.68 1.823 2.58 4.035 4.908 5.67 7.594 5.755 9.45 1.014 20.097-9.187 20.91-6.614.53-12.063-3.623-12.442-10.795-.498-9.42-3.7-17.82-7.585-26.154-1.117-2.396-2.014-4.936-2.678-7.496C-2.13 38.177 2.3 29.23 13.73 24.93c4.15-1.563 8.652-2.19 11.714-2.933zM29.502 9.416c-2.387 2.74-4.07 4.675-5.755 6.608-1.293-1.775-3.753-3.66-3.598-5.3.216-2.293 2.38-4.402 3.712-6.59 1.625 1.522 3.25 3.042 5.64 5.282zM18.497 12.687l-4.452 4.77c-1.02-1.634-2.83-3.268-2.832-4.904-.003-1.576 1.863-3.155 2.907-4.733l4.377 4.867zM11.087 16.935L7.685 20.13c-.936-1.352-2.32-2.607-2.634-4.09-.18-.853 1.374-2.074 2.147-3.13l3.89 4.025z"/></svg>